<svg xmlns="http://www.w3.org/2000/svg" xmlns:xlink="http://www.w3.org/1999/xlink" viewBox="0 0 1725.94 1725.94"><defs><style>.cls-1{fill:#fff;}.cls-2{fill:#1d1d1b;}.cls-3{fill:url(#Degradado_sin_nombre_13);}.cls-4{fill:#0058a5;}.cls-5{fill:#f8e932;}.cls-6{fill:#291f69;}.cls-7{fill:#cececa;}</style><radialGradient id="Degradado_sin_nombre_13" cx="876.88" cy="861.79" r="635.97" gradientUnits="userSpaceOnUse"><stop offset="0.07" stop-color="#cddef4"/><stop offset="1" stop-color="#0058a5"/></radialGradient></defs><g id="Capa_2" data-name="Capa 2"><g id="Capa_1-2" data-name="Capa 1"><circle class="cls-1" cx="862.97" cy="862.97" r="862.97"/><path class="cls-2" d="M58.74,879q8.58-9.91,20.11-11.59l.65,12A25.21,25.21,0,0,0,66,888.13q-4.8,6.27-4.22,17.09.72,13.2,10.6,20.8t29.41,6.54q16-.85,25.53-8.73t8.76-22.4q-.74-13.38-11.57-19.81-5.72-3.4-14.79-4.75l-.65-12q14.45.82,24.65,9.22Q146,884.16,147,902.33q.85,15.67-8.17,26.84-11.94,14.7-38.45,16.14-20.13,1.08-33.59-8.74Q52.16,926,51.08,906,50.15,888.88,58.74,879Z"/><path class="cls-2" d="M70.12,769.33q12.72-8.16,31.51-6.79Q122,764,134.71,775.32q15,13.26,13.32,35.71-1.51,21-16.24,32-14.13,9.74-34.54,8.25-18.42-1.34-30.87-11.44-16-13-14.3-36Q53.82,779.77,70.12,769.33Zm57.11,15a49.74,49.74,0,0,0-26.3-9.21q-16-1.17-26.41,6.5T63.08,803.88q-1,14.08,8,23.7t27.91,11q15.1,1.1,26-5.79t12.16-24Q138.38,792.49,127.23,784.38Z"/><path class="cls-2" d="M61.77,737l2.29-12.13,78.83,14.88,8.48-44.9,10.66,2-10.77,57Z"/><path class="cls-2" d="M77.58,659.49l19-63.3,10.68,3.22L91.73,651.18l26.48,8,14.39-47.85,10.09,3L128.3,662.17l29.57,8.89L173.7,618.4l10.39,3.12L164.8,685.7Z"/><path class="cls-2" d="M132.28,517.2q11.94-9.35,29.48-4.86l-4.94,11.17q-10-2-17,2.39t-11.17,14a26.85,26.85,0,0,0,.24,22.9q5.25,11.6,22.42,19.19,14.86,6.57,27,4.31t18.55-16.71q4.89-11.05,1.55-21.2t-17.89-16.79L169,557.65l-9.36-4.13L175.85,517l44.57,19.72-3.22,7.25-11.92-2q3.81,8.43,4.32,13.85,1,9.16-4,20.43A39.24,39.24,0,0,1,184.91,597q-17.07,6.12-38-3.17t-28.34-25.9q-7.09-15.84.38-32.71Q124,523.64,132.28,517.2Z"/><path class="cls-2" d="M151.58,474.21l6.06-10.89,79.6,44.24-6.05,10.9Z"/><path class="cls-2" d="M223.19,385.46q15.08-.68,30.66,9.93,16.86,11.48,22.21,27.64,6.29,19-6.39,37.58Q257.85,478,239.6,480.11q-17.11,1.33-34-10.18-15.27-10.4-21-25.38-7.31-19.23,5.67-38.29Q203.86,386.33,223.19,385.46Zm41.86,41.67A49.73,49.73,0,0,0,246.91,406q-13.28-9-26.11-7.62t-21,13.47q-8,11.69-5,24.53t18.64,23.49q12.51,8.52,25.42,8t22.56-14.67Q270.62,439.73,265.05,427.13Z"/><path class="cls-2" d="M284,387.34q6.09,4.8,11.77,5.66,10.71,1.54,20.56-9.68a35.36,35.36,0,0,0,6.55-10.46q4.14-10.51-3.32-17.07-5.58-4.91-10.93-3.62t-13.49,7.18l-10,7.14q-9.78,7-15.46,8.48-9.83,2.55-18.35-4.94-9.23-8.1-9.68-19.51t9.54-22.78q9.2-10.47,20.82-13.22t23,7.27l-7.65,8.71q-6.09-4.17-10.94-4.55Q267.57,325.3,259,335q-6.9,7.86-6.48,14.32a14.66,14.66,0,0,0,5,10.48c3.35,2.94,7,3.75,10.93,2.4q3.82-1.35,14.31-8.77l10.36-7.37q7.49-5.34,13.45-6.57,10.35-2.1,19.47,5.92,11.37,10,9.17,22.34t-11.57,23Q312.71,403.27,300,404.58t-23.63-8.53Z"/><path class="cls-2" d="M377.05,221.89q13.06,1.1,21.21,9.42l-9.32,7.6a25.21,25.21,0,0,0-15-5.75q-7.89-.19-16.29,6.66-10.25,8.34-10.56,20.82t12,27.61q10.11,12.4,22.1,15.49t23.26-6.12q10.38-8.47,9.19-21-.61-6.62-4.88-14.74l9.32-7.61q7.86,12.17,7.08,25.36-.92,15.86-15,27.36-12.17,9.91-26.5,9.2-18.92-1-35.7-21.56Q335.23,279,335.23,262.33q0-18.07,15.5-30.73Q364,220.78,377.05,221.89Z"/><path class="cls-2" d="M402.29,196l10.29-7,51.34,75.23-10.29,7Z"/><path class="cls-2" d="M434.82,173.92l57.42-32.73,5.52,9.7-47,26.77,13.69,24,43.42-24.74,5.21,9.16L469.7,210.84,485,237.66l47.77-27.22,5.38,9.42L479.91,253Z"/><path class="cls-2" d="M515.28,129.72l13.4-5.64,70.41,50.19-28.56-67.82,10.86-4.57,35.34,83.93L604,191.19l-71-49.85,28.52,67.74-10.85,4.57Z"/><path class="cls-2" d="M671.46,74.34l3,10.41L645,93.34l22.45,77-12,3.49-22.44-77-29.46,8.58-3-10.41Z"/><path class="cls-2" d="M690.63,70.8l12.2-2.56,18.71,89.13-12.2,2.56Z"/><path class="cls-2" d="M728.84,63l62.63-8.22,1.46,11.06-50.41,6.62,3.6,27.42,44.32-5.82,1.41,10.75-44.32,5.82,5.4,41.06-12.23,1.61Z"/><path class="cls-2" d="M812.74,54l12.44-.69,5,90.94-12.44.68Z"/><path class="cls-2" d="M915.21,60.26q9.16,9.38,9.87,21l-12-.35a25.13,25.13,0,0,0-7.6-14.18q-5.84-5.33-16.67-5.64-13.21-.39-21.61,8.83t-9,28.76q-.47,16,6.57,26.17t21.59,10.6q13.39.39,20.71-9.88,3.87-5.4,6-14.33l12,.35q-2,14.32-11.24,23.8-11.07,11.38-29.26,10.86-15.67-.47-26.06-10.39-13.65-13.13-12.87-39.66.6-20.16,11.51-32.74Q868.94,49.78,889,50.37,906,50.87,915.21,60.26Z"/><path class="cls-2" d="M1023.59,80.85q7,13.37,4.09,32-3.2,20.15-15.53,31.87Q997.66,158.47,975.43,155q-20.74-3.3-30.46-18.89-8.49-14.91-5.29-35.11,2.9-18.26,14-29.8Q968,56.35,990.74,60,1014.56,63.73,1023.59,80.85Zm-19.84,55.63a49.8,49.8,0,0,0,11.41-25.42q2.52-15.87-4.25-26.87T989.76,70.91q-14-2.22-24.3,6t-13.3,26.88q-2.37,15,3.56,26.42t22.9,14.15Q994.73,146.89,1003.75,136.48Z"/><path class="cls-2" d="M1047.86,136.71q-1.75,7.56-.12,13.07,3.16,10.33,17.51,14.49a35.68,35.68,0,0,0,12.25,1.48q11.28-.74,14-10.27c1.38-4.76.92-8.58-1.38-11.43s-6.43-5.89-12.23-9.16l-10.71-6Q1056.74,123,1053,118.5q-6.49-7.81-3.34-18.71,3.42-11.79,13.54-17.06t24.68-1q13.38,3.87,20.82,13.22t3.22,23.94l-11.14-3.23q1.18-7.26-.53-11.83-3.23-8.36-15.66-12-10.05-2.89-15.73.23a14.66,14.66,0,0,0-7.36,9q-1.86,6.44,2.47,10.91,2.86,2.89,14,9.23l11.08,6.24q8,4.5,11.67,9.37,6.3,8.47,2.92,20.15-4.2,14.54-16.32,17.8t-25.77-.68q-15.91-4.6-22.5-15.55t-2.33-25Z"/><path class="cls-2" d="M1182.55,117l32.79,15.81q16.7,8.06,20.11,24.5,3,14.79-5.18,31.71A62.1,62.1,0,0,1,1214,210.35q-17.54,14.53-38.36,4.49L1143,199.08Zm-4.37,87.3a32.35,32.35,0,0,0,9.63,3.2,22.2,22.2,0,0,0,14.41-3.37,38.73,38.73,0,0,0,10.78-10.5,55.06,55.06,0,0,0,5-8.2q7.35-15.24,5.49-26.54t-15-17.63l-19.27-9.3-30.38,63Z"/><path class="cls-2" d="M1272.27,162.53l55.7,35.58-6,9.41-45.56-29.11-14.88,23.3,42.11,26.91L1298,237.5l-42.11-26.9-16.62,26,46.34,29.61-5.84,9.14-56.48-36.08Z"/><path class="cls-2" d="M1422.52,285.08q.9,13.1-6.1,22.39l-8.93-8.06a25.11,25.11,0,0,0,3.41-15.72q-1-7.83-9.05-15.1-9.81-8.85-22.18-7.28T1354.2,277.4q-10.73,11.88-12,24.19t9.58,22.06q9.95,9,22.16,5.9,6.46-1.6,13.84-7.05l8.93,8.06q-10.83,9.6-24,10.83-15.81,1.51-29.32-10.69-11.64-10.51-13.12-24.79-1.89-18.86,15.9-38.55,13.52-15,30-17.48,17.85-2.77,32.72,10.66Q1421.62,272,1422.52,285.08Z"/><path class="cls-2" d="M1491.7,371q-3.3,14.75-17.6,27-15.49,13.28-32.49,14.21-20,1.09-34.6-16-13.68-16-11-34.12,3.18-16.86,18.72-30.18,14-12,30-13.61,20.46-2,35.47,15.48Q1495.93,352.13,1491.7,371Zm-51.16,29.52a49.85,49.85,0,0,0,25.16-12q12.21-10.47,14.18-23.22t-7.5-23.82q-9.21-10.74-22.39-11.19t-27.55,11.85q-11.49,9.85-14.4,22.43t8.27,25.62Q1426.92,402.61,1440.54,400.53Z"/><path class="cls-2" d="M1474,429.22q-6.23,4.63-8.54,9.89-4.28,9.93,4,22.38a35.79,35.79,0,0,0,8.39,9.06q9.07,6.74,17.34,1.25,6.19-4.11,6.35-9.61t-3.4-14.9l-4.28-11.5q-4.2-11.27-4.15-17.14.11-10.15,9.57-16.43,10.23-6.78,21.36-4.24t19.49,15.16q7.71,11.63,7.33,23.56t-13,20.33l-6.41-9.66q5.61-4.78,7.25-9.37,3-8.44-4.2-19.25-5.79-8.72-12.14-10a14.63,14.63,0,0,0-11.41,2.08q-5.58,3.69-5.18,9.91.3,4,4.73,16.11l4.41,11.93q3.18,8.63,2.82,14.7-.68,10.53-10.8,17.25-12.62,8.36-24,3t-19.21-17.19q-9.15-13.82-7.1-26.42t14.41-20.57Z"/><path class="cls-2" d="M1600.87,525.13l-9.65,5-14-27.28-71.32,36.75-5.7-11.08,71.31-36.75-14.06-27.28,9.64-5Z"/><path class="cls-2" d="M1614.13,557.9l5.15,12.94-72.41,64.37-5-12.56,21.84-18.91-13.21-33.2-29,.9-4.67-11.75Zm-42.38,38.87,32.2-27.9-42.77,1.34Z"/><path class="cls-2" d="M1646.37,651.41l9,40.4q2.23,10,.72,17.12-2.94,13.58-18.24,17-8,1.79-13.81-.37a24.42,24.42,0,0,1-10.23-7.4,18.66,18.66,0,0,1-3.82,9.08q-2.85,3.4-10.53,5.44l-11.82,3.09a37.2,37.2,0,0,0-7.38,2.54c-2.66,1.36-4.19,3.05-4.58,5.09l-2,.45-3.31-14.77a11.46,11.46,0,0,1,2.75-1.63,58,58,0,0,1,6.88-2.17l14.66-4q8.63-2.36,10.27-8.9.88-3.72-.72-10.89l-6-26.63-38.11,8.54-2.7-12Zm-32,48.22q1.85,8.24,6.31,12.27T1634,714q9.49-2.12,11.45-9.6a22.08,22.08,0,0,0-.33-10l-6.4-28.59-30.38,6.8Z"/><path class="cls-2" d="M1665.48,748.45l1.67,12.35L1576.9,773l-1.67-12.35Z"/><path class="cls-2" d="M1667.28,851.2q-8.64,9.88-20.17,11.49l-.59-12a25.13,25.13,0,0,0,13.54-8.68q4.85-6.24,4.31-17.07-.64-13.18-10.49-20.85t-29.37-6.69q-16,.78-25.58,8.6t-8.87,22.35q.64,13.39,11.46,19.87a40.34,40.34,0,0,0,14.76,4.82l.59,12q-14.44-.88-24.6-9.35-12.24-10.14-13.12-28.32-.78-15.66,8.31-26.79,12-14.64,38.53-15.94,20.15-1,33.55,8.91,14.55,10.69,15.54,30.71Q1675.92,841.33,1667.28,851.2Z"/><path class="cls-2" d="M1672,912.85l-1,13.89L1578,953.51l.92-13.48,27.87-7.63,2.43-35.65L1582.63,885l.86-12.62Zm-55,16.74,41.09-11.24-39.15-17.28Z"/><path class="cls-3" d="M1535,864.1c0-367.35-294.75-665.84-660.65-671.91V1536C1240.24,1530,1535,1231.45,1535,864.1Z"/><path class="cls-4" d="M266.82,863.59c0-323,261.82-584.79,584.79-584.79V191.68C485.71,197.75,191,496.24,191,863.59s294.76,665.85,660.66,671.91v-87.12C528.64,1448.38,266.82,1186.56,266.82,863.59Z"/><path class="cls-5" d="M360.59,863.59c0-271.18,219.83-491,491-491V278.8c-323,0-584.79,261.82-584.79,584.79s261.82,584.79,584.79,584.79v-93.76C580.42,1354.62,360.59,1134.78,360.59,863.59Z"/><path class="cls-4" d="M360.59,863.59c0,271.19,219.83,491,491,491v-97.76c-217.2,0-393.27-176.07-393.27-393.27S634.41,470.33,851.61,470.33V372.57C580.42,372.57,360.59,592.41,360.59,863.59Z"/><path class="cls-5" d="M560.09,863.59c0-161,130.52-291.52,291.52-291.52V470.33c-217.2,0-393.27,176.07-393.27,393.26s176.07,393.27,393.27,393.27V1155.11C690.61,1155.11,560.09,1024.59,560.09,863.59Z"/><path class="cls-4" d="M560.09,863.59c0,161,130.52,291.52,291.52,291.52v-89.78c-111.42,0-201.74-90.32-201.74-201.74s90.32-201.74,201.74-201.74V572.07C690.61,572.07,560.09,702.59,560.09,863.59Z"/><path class="cls-5" d="M649.87,863.59c0,111.42,90.32,201.74,201.74,201.74V661.85C740.19,661.85,649.87,752.17,649.87,863.59Z"/><path class="cls-6" d="M1041.38,372.44h0l-.08-.06,0,0Z"/><path class="cls-6" d="M1041.16,372.27l0,0Z"/><path class="cls-6" d="M1041.18,372.29l.12.09Z"/><path class="cls-6" d="M1399.29,1128.54c-1.33-8-3.33-12.66-10-21.33s-13.33-15.33-22.66-25.33-24.67-28.67-24.67-28.67l-6-7.33a31.73,31.73,0,0,0-8.76-3.34c-4.1-.66-4.57-2.66-1.31-6.66s-.6-4.67-.6-8,1.34-5.34,0-10-2-12.67-4.66-18a45.67,45.67,0,0,0-10-14c-5.34-5.34-13.34-7.34-18.67-10.67s-10-14-12-22.67-8.67-12-12.67-15.33-18-16-24-22.67-18.66-10-23.33-10.66-20-9.34-30.67-12.67-14,1.33-18.66,0-14.67-2-15.34-4-.66-5.33-2-11.1-4.66-5.57-5.33-8.9.67-8,3.33-11.33,2-5.34,4.67-10.67,2-6.67,3.33-10,4-4.67,6.67-8.67,2-7.33,2-14-.67-4-.67-4l-2-6-5.33-5.33-4.67-4.67c-4.66-4.66-4.66,0-4.66,0l-11.34-2.66s-6.66-2-11.33-4a11,11,0,0,0-8.67,0l-8.66-4.67v-2c0-2,1.33-6,2-8s6-8.67,6-8.67l1.33-6.66-5.33-5.34-13.34-1.33-12-2-6.66,1.33-4,4-4,4.67-4.67,5.33h-12l-8.67-4h-8l-9.33-5.33-4-2c-4-2-3.33-3.33-3.33-8.68s-.67-5.32-1.34-8.65,5.34-6,5.34-6l4-2c4-2,0,0,2-2.67a16.77,16.77,0,0,0,2.66-6l1.34-8,2-12.67a49.81,49.81,0,0,0-.67-8c-.67-3.33,1.33-4,1.33-4l6.67-1.33h15.33a36.35,36.35,0,0,1,7.34,1.33l6.66,4,6,4.67,12.49,1.33,11.51.67,9.34,1.33s6.66.67,10,1.34a52.71,52.71,0,0,1,7.33,2c2,.66,4,5.33,4.67,7.33s.66,6.67.66,6.67a25.25,25.25,0,0,1,1.34,8.66c0,5.34,0,6-.67,8.67s2,6,2,6,3.33.67,8.67,2,0,0,2,2.3,4.66,0,4.66,0l6.67-.3s4,.67,6,0,6.67-6.67,6.67-6.67l.66-8s-.66-6.66-1.33-9.33a4.58,4.58,0,0,0-2.67-3.33s-4-2.67-6.66-4-4.67-7.34-4.67-7.34l-.67-9.33s1.34-6.67,5.34-9.33,0,0,6.66-3.34,8.67,0,8.67,0h14l4-3.33v-3.35l-.67-10.65-.66-9.33-2-6a15.43,15.43,0,0,1,1.33-6c1.33-2.67,3.33-6,3.33-6h3.37v-7.34l3.3-6.66,2.67-1.34c2.66-1.33,4.66,1.34,6.66,0a3.77,3.77,0,0,1,4,0l.67-4.66v-4c0-4-2-5.34-2.67-9.34s-2-6.66-4-10.66-3.33-5.34-4.66-7.8-6-9.54-6-9.54-5.37-7.33-6.7-10-3.33-10-5.33-13.33-8-14.67-12-21.33,5.33,0,6.66,2,10,13.33,11.34,16,6,8.66,6,11.33,9.3,10,12.63,15.33,4,9.34,6,13.34,6.67,14,8.67,16a41.83,41.83,0,0,0,6.67,4.66l4.66-4.37H1248l4.67-.29a10,10,0,0,0,4.66,0c2-.67,4.67,0,8,0s8.67-2,12-2.67a7.44,7.44,0,0,0,4.67-2.67s2-4.66,2-6.66-.67-7.72-.67-7.72a12,12,0,0,0-6-.08c-2.66.88-5.33-5.54-8-6.2s-3.33-3.34-4-3.5-2.66-6.5-4-8.5-1.33-10,.67-14,8-2.67,10.67-2.67,6,2,8,5.33a13,13,0,0,1,2,8c0,2.67,4,6,4.66,8s5.34,3.33,5.34,3.33,3.33,1.34,6-.34,4,1.68,6-.32,6,1.33,8.66,0,3.93,0,3.93,0l-.59-5.33a18.2,18.2,0,0,0,0-9.34c-1.34-5.33,0,0-5.34-2.66s0,0-4.66-4-7.34,0-7.34,0l-7.33-4.67s-4-9.33-5.33-12.67-3.34-13.33-6.67-18.66-8.67-7.34-13.33-10.67-6.67-4-9.34-4.67-12-4-16-7.33-5.33-6.67-6.66-10.88-2.67-1.79-5.34-4.45-4-2.67-8-4.67-7.33-4-10.66-6-8.67-6-12-8-6-1.33-8-1.33a17.12,17.12,0,0,0-7.34,1.33c-3.33,1.33-4,6.67-4.66,8.67s1.33,8.66,1.33,8.66,4,10.67,4.67,15.34-1.34,6-5.34,7.33-.66,10-.66,16,0,6-1.34,7.33-10,.67-12.66,0-3.34-3.33-4.67-6a20.21,20.21,0,0,0-4.67-6.66c-2.66-2.67-6.66-4-12-6a98.31,98.31,0,0,1-11.33-4.67c-4-2-6-4-10-8.67s-3.33-8.66-4-12.66,1.33-10.67,2-14,6-12,8-15.34,7.33-10,7.33-10,6-2,8.67-3.33a29.43,29.43,0,0,0,7.33-5.33c2-2,7.34-4.67,11.34-7.34s10.66-4.66,13.33-5.33,9.33,3.33,9.33,3.33a81.64,81.64,0,0,1,1.34,8.67c0,2-2.67,6-2.67,6a50.69,50.69,0,0,1-10.67,0c-4.66-.67-8,4-8,4s-2.66,7.33-5.33,10,3.33,4,10.67,4.67,8.66-3.34,11.33-4.67,6.67-1.33,10-2,7.33.67,12.7,1.33,6.63,4.67,10.63,8,6.67,6.67,11.34,9.34,6,2,9.33,0,0-9.34,0-17.34-4.67-14-7.33-22-5.34-6.66-11.34-13.33-6-6.67-12.63-8-8.7-8-14-12.67-14-10-19.34-12-6-2-7.33-4.66,1.33-9.34,1.33-9.34,6-6.66,10.67-10,6-8.66,6.67-22.66-6-16-12-20.67-9.34-3.33-14-3.33-12,8.66-15.34,13.33,2,11.33,2,11.33l6,6V344a44.61,44.61,0,0,1-4,11.2c-2.66,4.67,0,0-4.66,2.67s0,0-6,2.66,0,0-6.93.67-2.41.67-7.07.67-4,.66-7.34.66h-12c-9.33,0,0,0-4.66-.66s-4-2-8.67-4.67l-4.67-.67,2.67-5.33h2c2,0,5.33-2,5.33-2l4.67-1.33h12.67c7.33,0,5.33-.67,5.33-.67l4-3.2s-.67-1.47-2-4.13-2.67-3.34-2.67-3.34-2.66-3.33-4-5.33a31,31,0,0,0-3.33-4l-4.67-2.67-5.33-.66c-5.33-.67-3.33,0-6,.66a36.54,36.54,0,0,0-6.67,2c-3.33,1.34-4.66,1.34-8,2a15.54,15.54,0,0,0-6.66,2.67,48.39,48.39,0,0,0-6.67,6c-2.67,2.67-1.33,4-1.33,6.8s-.67,1.87-5.34,5.87,0,0-2.66,2-2,6.66-2,6.66l1.33,4.67,4,4.67s3.33,3.33,7.33,8,0,0,6.67,2.66,0,0,3.33,3.34,0,0,1.34,2.7,2.66,1.3,5.33,4,3.33.67,8.67,1.34,3.33,0,7.33.66,3.33,0,8.67.67,2.66.67,6,1.33,6.66,1.34,9.33,2,3.33.67,5.33,2-4,4-4,4l-4.66,4-4,3.34-5.34.66c-5.33.67,0,0-3.33-.66s-4.67-2-8-5.34-2.67,1.34-7.33,0-3.34-.66-9.34-4.66-4,1.33-8,0-3.33-2-6.66-4-5.34-4-8.67-9.3-4-1.37-6-4.7-3.33-2-8.67-6c-.9-.69-1.5-1.13-1.88-1.42h0l0,0h0l0,0-.27-.21.08.06-.1-.07-.06,0h0l0,0-.34-.26c-2.67-2-1.34-2.67-3.71-4.67s-.29-7.33-.29-7.33a24.2,24.2,0,0,0,0-7.34c-.67-3.33-3.34,0-3.34,0H1028c-5.33,0,0,0-5.33-1.33s0,0-4.67-2.67-4,0-4,0l-5.33-5.33s.66-3.33,0-5.33,0-2.67-3.34-6.67,2-2.67,0-6.67,0,0-.66-2-3.34-3.33-3.34-3.33L998,316.54V295.88l-3.33-4.67-2-.4c-2-.4-8.67-.93-12.67,0s-4.67-.93-5.33-3.6-6-3.33-8-3.33-8.67.66-10.67,2-1.33,4.66-4,4.93-2.67-4.93-3.33-7.6-3.34-4-8-4-7.34,8-9.34,11.58,2,6.42,0,9.09-6.66.66-10.66-3.34-14-5.73-14-5.73c-24-1.07-20.67,40.4-20.67,40.4H874.34v12c5.71,1.33,18.95-.67,18.95,2.67s4,4.66,6.67,4.66,3.33-4.66,4.67-7.33,7.33-4.67,11.33-6,7.33,2.67,8,5.33-1.33,5.34-8,5.34-10,3.33-10,8,10,4,10,4,8-.67,8.67,2,6,6.66,8.66,7.33S938,380.54,938,380.54s.67,66.67,0,76,2.67,14.67,3.33,20.67,0,6-4,5.12-8,6.21-10.66,8.88-8,12.67-18,29.33-11.34,53.34-11.34,60,4,9.34,7.34,9.34,4,6.66,4,14.66,3.33,12,5.33,16,2,10,2,12.67v24c0,2,.67,16.67,1.33,20S922,687.88,922,687.88l6.67,6.66s4.66,2.67,6.66,2,.67-5.33.67-9.33-2.67-7.33-3.33-10-1.34-8.67-2.67-15.33-2-11.34-1.33-22.67,8.66,2,8.66,4v10c0,3.33,2.67,17.33,2.67,17.33s4.67,14,7.33,22,5.34,10.67,8.67,17.34-1.33,19.33-1.33,28,6.66,8.66,13.33,9.33,20,11.33,29.33,20,15.34,15.33,31.34,18,22.66,22,26,28,13.33,8,19.33,8.67,11.33,6,13.33,10,11.34,4,13.34,6,4,17.33,4,17.33-.67,15.33-.67,25.33,8,20,16,20.67,12.67,3.33,14,7.33,4.67,6.67,11.33,7.34,2.67,4.66-1.33,7.33-4,11.33-4,14.67-2.67,8.66-2.85,12.66-11.15,8-19.82,14-8,9.34-16,19.34-5.33,40-6.66,52,8.66,31.33,9.33,41.46a109.76,109.76,0,0,0,6,27.2c2,5.34,3.33,17.34,3.33,24s-2,10-4.66,12.67-2,15.33-1.34,21.33-7.33,12.67-11.33,16.67-4,16-2.67,23.33-6,21.34-7.33,33.34,4,12.66,12.67,14,0,11.33,0,11.33a225.34,225.34,0,0,0-10.67,20c-5.33,11.33-6,18-8,30s-2.67,25.33-3.33,34.67-7.34,7.33-14,10-4.67,14-.67,19.33,4.67,20.67,4,30,2,12.67,5.33,16.67,2,8.66,1.34,16,6.66,8,6.66,8l16-6c5.34-2,6.67-8.67,8-17.34s7.34-10.66,10-13.33,5.34-12,5.34-12,0-5.33.66-7.33.67-8,.67-8l6.67-4.67,5.33-6.67a18.65,18.65,0,0,1,5.15-7.33c3.82-3.33,4.18-12.67,4.18-12.67s4.67.67,6.67,0a58.54,58.54,0,0,0,6.67-3.33l-1.34-4s-3.33-2.67-2.66-6,4-7.33,6-9.33a87.05,87.05,0,0,1,10.66-8c4-2.67,14,0,16.67,0s8-6,10.67-8,4-3.34,6.66-4.67,6.67,1.33,20-10,37.34-41.33,40.67-45.33,7.33-4.67,11.33-4,30,4,39.34,4,12.66-5.34,12.66-5.34,2-4.66,18-42.66,45.34-39.34,52-40,4-14.67,4-14.67S1400.63,1136.54,1399.29,1128.54ZM1143,397.54c2.33,1.67-.85,8-2.92,6.34s-.78-6.34-2.93-8.34A14.06,14.06,0,0,1,1143,397.54Zm33,207a31.62,31.62,0,0,0,7-2.07c2-.93,2.67-1.26,4.33-1.93a24,24,0,0,1,4.67-1.66,7.53,7.53,0,0,1,4.33,0v5.66l-4.33,3-5.83,2.67s-3.5,2.33-4.84,3a4.14,4.14,0,0,1-3,0,16.09,16.09,0,0,1-4.33,1.67,16.74,16.74,0,0,1-4.33,0l-4.34.14a31.87,31.87,0,0,0-4.33-3.48c-1.33-.66-3-4.48-3-4.74a17.61,17.61,0,0,1,2-2.26,4.64,4.64,0,0,1,2.33-.66c1.34,0,4-.34,5,0S1172.85,605.17,1176,604.54Zm-69.33-46.66h7c4,0,2,.33,6.66,0a86.09,86.09,0,0,1,10,0l2.67,1.66,4.15,4s.52,3.34,1.52,4.34,3,2.66,4,3.66.66,2,2.66,2.34,1-.34,3.34,0,.66-.48,4,.09,4.33-1.23,6.66,0a17.12,17.12,0,0,0,5.34,1.57,7.17,7.17,0,0,1,2.66,1.67v8s-2.33,2.67-3.33,4-1.33,2.67-2.33,3.67-2,1.33-4,1.66-4,.67-5.34,0-3-3.33-3.66-4.33-3-3.33-4.34-3-4,2.67-4,2.67,0,.33-1.33,2.33a17.79,17.79,0,0,0-2,4.33l-3.67,2.34a15.21,15.21,0,0,0-1.66,2c-.67,1-.67-1.34-2,0s.66,2-1.34,1.33-3-.33-3.33-2.67a10.56,10.56,0,0,1,.33-5.66c.67-1.67,3-3,5-4.34a31,31,0,0,1,3.67-2.33c1.33-.67,2.3-2.67,3.15-4.67s-3.15-5.33-3.15-5.33-4.67-3.33-6.67-4.67-4.66-3.66-6.66-4.66-3-2.67-6.34-2.34-6,.67-7.66.34a29.06,29.06,0,0,1-6.34-2c-1-.67-1.66-3-1.66-3S1099.63,557.88,1106.63,557.88Z"/><path class="cls-6" d="M1041.41,372.47Z"/><polygon class="cls-6" points="1041.41 372.47 1041.4 372.46 1041.41 372.46 1041.41 372.47"/><path class="cls-6" d="M1040.91,372.09l.06.05,0,0Z"/><path class="cls-6" d="M1040.91,372.09l-.07-.06Z"/><path class="cls-6" d="M1040.84,372Z"/><path class="cls-6" d="M1352.63,509.88c2.66,6.66-4.67,7.33-4.67,7.33s-12-4.67-12,11.33,10.67,20,18,23.34,8.67,10.66,10,18,10.67,7.33,10.67,7.33h18c5.38,0,0-7.33,0-7.33s-.71-54.67,0-62-6.67-14.67-6.67-14.67-18.67-20.67-28.67-31.33-29.33-20-40.66-8.67,2.66,26,5.33,29.12S1350,503.21,1352.63,509.88Z"/><path class="cls-6" d="M1230.29,793.54c1.34-.66,4-3.33,3-4.33s.67-4,0-5-4.33-2.33-7.33-3.67-3-2.33-5.33-4.33-4.67-2.33-7.34-4.33a67.27,67.27,0,0,0-7-4.32,23.65,23.65,0,0,0-6-2.35,67.51,67.51,0,0,0-8.33-.33c-2.67,0-5.67.66-8.33.66s-5,0-7.34-1,0-5.33,0-5.33-1.33-.67-5,0,0,0-4,3.52-2,.15-5.66.15-4.67-.34-8.23,0-3.77,3.33-4.44,5.33,1.67,3,4.33,4.67,3.32.8,4.67,3.33c2.67,5,7,5,9,5.33s6.33-.33,10,0a44.36,44.36,0,0,1,7.67,1c2.66.67,3.66,3.67,6.55,5s1.11,4.34,2.11,5.34,5.67,3,8.34,2,7.33.66,10.33,0,8,0,9.67,0S1229,794.21,1230.29,793.54Z"/><path class="cls-6" d="M1217.29,803.56c-2.33-2-2.66-1.35-3.66-2s-2-1-5,0-3.9,2.75-4,4.67c-.29,8,4.63,8,5.63,7.81a16.23,16.23,0,0,1,2.58-.14,28.18,28.18,0,0,0,5.42,0c1.67-.34,1.34-1,2.34-2.34s0-2.66,0-5.33S1219.63,805.54,1217.29,803.56Z"/><path class="cls-6" d="M1280.29,800.91a9,9,0,0,1-3,0c-1.33-.29-2,0-4.33,0s-2-.7-4-2.7-2.33-1.67-3.67-3.06-3.66-.61-5-1.94-3-3.33-4.66-4.33a13.66,13.66,0,0,0-5.34-2c-3-.67-5-.17-7.33,0-3.69.26-3,16-2.67,17.33s2,3,2,4.67,1.72,2,2.72,3.66a5.17,5.17,0,0,1,1,3.67c0,1.67-1.33,2.67-3,4s0,4.33.67,5.67,0,0,3.66-.67,0,0,1-1,3-3.33,3-3.33a35.48,35.48,0,0,1,3.67-2.67,45.35,45.35,0,0,0,5-4.14s3.33-1.53,5.33-2.77,4,.58,5.67-.42,3.67,1.33,6.67,0c2.2-1,2.6-.53,2.66-.21v-9.76Z"/><path class="cls-6" d="M1280.29,810.67v.21A.42.42,0,0,0,1280.29,810.67Z"/><path class="cls-7" d="M1041.38,360.43h0l-.08-.06,0,0Z"/><path class="cls-7" d="M1041.16,360.27h0Z"/><path class="cls-7" d="M1041.18,360.28l.12.09Z"/><path class="cls-7" d="M1399.29,1116.54c-1.33-8-3.33-12.67-10-21.34s-13.33-15.33-22.66-25.33S1342,1041.2,1342,1041.2l-6-7.33a31.51,31.51,0,0,0-8.76-3.33c-4.1-.67-4.57-2.67-1.31-6.67s-.6-4.67-.6-8,1.34-5.33,0-10-2-12.67-4.66-18a45.79,45.79,0,0,0-10-14c-5.34-5.33-13.34-7.33-18.67-10.67s-10-14-12-22.66-8.67-12-12.67-15.34-18-16-24-22.66-18.66-10-23.33-10.67-20-9.33-30.67-12.67-14,1.34-18.66,0-14.67-2-15.34-4-.66-5.33-2-11.1-4.66-5.56-5.33-8.9.67-8,3.33-11.33,2-5.33,4.67-10.67,2-6.66,3.33-10,4-4.66,6.67-8.66,2-7.34,2-14-.67-4-.67-4l-2-6L1160,785.2l-4.67-4.66c-4.66-4.67-4.66,0-4.66,0l-11.34-2.67s-6.66-2-11.33-4a11,11,0,0,0-8.67,0l-8.66-4.67v-2c0-2,1.33-6,2-8s6-8.66,6-8.66l1.33-6.67-5.33-5.33-13.34-1.34-12-2-6.66,1.34-4,4-4,4.66-4.67,5.34h-12l-8.67-4h-8L1032,741.2l-4-2c-4-2-3.33-3.33-3.33-8.68s-.67-5.32-1.34-8.65,5.34-6,5.34-6l4-2c4-2,0,0,2-2.67a16.69,16.69,0,0,0,2.66-6l1.34-8,2-12.66a49.73,49.73,0,0,0-.67-8c-.67-3.34,1.33-4,1.33-4l6.67-1.34h15.33a36.11,36.11,0,0,1,7.34,1.34l6.66,4,6,4.66,12.49,1.34,11.51.66,9.34,1.34s6.66.66,10,1.33a54.15,54.15,0,0,1,7.33,2c2,.67,4,5.33,4.67,7.33s.66,6.67.66,6.67a25.28,25.28,0,0,1,1.34,8.67c0,5.33,0,6-.67,8.66s2,6,2,6,3.33.67,8.67,2,0,0,2,2.3,4.66,0,4.66,0l6.67-.3s4,.67,6,0,6.67-6.66,6.67-6.66l.66-8s-.66-6.67-1.33-9.34a4.61,4.61,0,0,0-2.67-3.33s-4-2.67-6.66-4-4.67-7.33-4.67-7.33l-.67-9.34s1.34-6.66,5.34-9.33,0,0,6.66-3.33,8.67,0,8.67,0h14l4-3.34v-3.35l-.67-10.65-.66-9.33-2-6a15.46,15.46,0,0,1,1.33-6c1.33-2.67,3.33-6,3.33-6h3.37v-7.33l3.3-6.67,2.67-1.33c2.66-1.34,4.66,1.33,6.66,0a3.75,3.75,0,0,1,4,0l.67-4.67v-4c0-4-2-5.33-2.67-9.33s-2-6.67-4-10.67-3.33-5.33-4.66-7.8-6-9.53-6-9.53-5.37-7.34-6.7-10-3.33-10-5.33-13.34-8-14.66-12-21.33,5.33,0,6.66,2,10,13.33,11.34,16,6,8.67,6,11.33,9.3,10,12.63,15.34,4,9.33,6,13.33,6.67,14,8.67,16a42.13,42.13,0,0,0,6.67,4.67l4.66-4.38H1248l4.67-.29a9.84,9.84,0,0,0,4.66,0c2-.67,4.67,0,8,0s8.67-2,12-2.67a7.41,7.41,0,0,0,4.67-2.66s2-4.67,2-6.67-.67-7.71-.67-7.71a12,12,0,0,0-6-.09c-2.66.88-5.33-5.53-8-6.2s-3.33-3.33-4-3.5-2.66-6.5-4-8.5-1.33-10,.67-14,8-2.67,10.67-2.67,6,2,8,5.34a12.94,12.94,0,0,1,2,8c0,2.66,4,6,4.66,8s5.34,3.32,5.34,3.32,3.33,1.34,6-.33,4,1.67,6-.33,6,1.34,8.66,0,3.93,0,3.93,0l-.59-5.33a18.17,18.17,0,0,0,0-9.33c-1.34-5.34,0,0-5.34-2.67s0,0-4.66-4-7.34,0-7.34,0L1292,535.2s-4-9.33-5.33-12.66-3.34-13.34-6.67-18.67-8.67-7.33-13.33-10.67-6.67-4-9.34-4.66-12-4-16-7.34-5.33-6.66-6.66-10.87-2.67-1.79-5.34-4.46-4-2.67-8-4.67-7.33-4-10.66-6-8.67-6-12-8-6-1.33-8-1.33a17.12,17.12,0,0,0-7.34,1.33c-3.33,1.34-4,6.67-4.66,8.67s1.33,8.67,1.33,8.67,4,10.66,4.67,15.33-1.34,6-5.34,7.33-.66,10-.66,16,0,6-1.34,7.34-10,.66-12.66,0-3.34-3.34-4.67-6a20.24,20.24,0,0,0-4.67-6.67c-2.66-2.67-6.66-4-12-6A98.31,98.31,0,0,1,1132,487.2c-4-2-6-4-10-8.66s-3.33-8.67-4-12.67,1.33-10.67,2-14,6-12,8-15.33,7.33-10,7.33-10,6-2,8.67-3.34a29.43,29.43,0,0,0,7.33-5.33c2-2,7.34-4.67,11.34-7.33s10.66-4.67,13.33-5.34,9.33,3.34,9.33,3.34a81.36,81.36,0,0,1,1.34,8.66c0,2-2.67,6-2.67,6a50.69,50.69,0,0,1-10.67,0c-4.66-.66-8,4-8,4s-2.66,7.34-5.33,10,3.33,4,10.67,4.67,8.66-3.33,11.33-4.67,6.67-1.33,10-2,7.33.67,12.7,1.34,6.63,4.66,10.63,8,6.67,6.66,11.34,9.33,6,2,9.33,0,0-9.33,0-17.33-4.67-14-7.33-22-5.34-6.67-11.34-13.34-6-6.66-12.63-8-8.7-8-14-12.66-14-10-19.34-12-6-2-7.33-4.67,1.33-9.33,1.33-9.33,6-6.67,10.67-10,6-8.67,6.67-22.67-6-16-12-20.67-9.34-3.33-14-3.33-12,8.67-15.34,13.33,2,11.34,2,11.34l6,6V332a44.46,44.46,0,0,1-4,11.19c-2.66,4.67,0,0-4.66,2.67s0,0-6,2.67,0,0-6.93.66-2.41.67-7.07.67-4,.67-7.34.67h-12c-9.33,0,0,0-4.66-.67s-4-2-8.67-4.67l-4.67-.66,2.67-5.34h2c2,0,5.33-2,5.33-2l4.67-1.33h12.67c7.33,0,5.33-.67,5.33-.67l4-3.19s-.67-1.47-2-4.14-2.67-3.33-2.67-3.33-2.66-3.34-4-5.34a31,31,0,0,0-3.33-4l-4.67-2.66-5.33-.67c-5.33-.67-3.33,0-6,.67a35,35,0,0,0-6.67,2c-3.33,1.33-4.66,1.33-8,2a15.42,15.42,0,0,0-6.66,2.66,49.74,49.74,0,0,0-6.67,6c-2.67,2.67-1.33,4-1.33,6.81s-.67,1.86-5.34,5.86,0,0-2.66,2-2,6.67-2,6.67l1.33,4.66,4,4.67s3.33,3.33,7.33,8,0,0,6.67,2.67,0,0,3.33,3.33,0,0,1.34,2.7,2.66,1.3,5.33,4,3.33.66,8.67,1.33,3.33,0,7.33.67,3.33,0,8.67.66,2.66.67,6,1.34,6.66,1.33,9.33,2,3.33.66,5.33,2-4,4-4,4l-4.66,4-4,3.33-5.34.67c-5.33.66,0,0-3.33-.67s-4.67-2-8-5.33-2.67,1.33-7.33,0-3.34-.67-9.34-4.67-4,1.33-8,0-3.33-2-6.66-4-5.34-4-8.67-9.3-4-1.37-6-4.7-3.33-2-8.67-6l-1.88-1.41h0l0,0h0l0,0-.27-.2.08.06-.1-.08-.06,0h0l0,0-.34-.26c-2.67-2-1.34-2.67-3.71-4.67s-.29-7.33-.29-7.33a24.14,24.14,0,0,0,0-7.33c-.67-3.34-3.34,0-3.34,0H1028c-5.33,0,0,0-5.33-1.34s0,0-4.67-2.66-4,0-4,0l-5.33-5.34s.66-3.33,0-5.33,0-2.67-3.34-6.67,2-2.66,0-6.66,0,0-.66-2-3.34-3.34-3.34-3.34L998,304.54V283.87l-3.33-4.67-2-.4c-2-.4-8.67-.93-12.67,0s-4.67-.93-5.33-3.6-6-3.33-8-3.33-8.67.67-10.67,2-1.33,4.67-4,4.93-2.67-4.93-3.33-7.6-3.34-4-8-4-7.34,8-9.34,11.58,2,6.42,0,9.09-6.66.67-10.66-3.33-14-5.74-14-5.74c-24-1.06-20.67,40.4-20.67,40.4H874.34v12c5.71,1.34,18.95-.66,18.95,2.67s4,4.67,6.67,4.67,3.33-4.67,4.67-7.34,7.33-4.66,11.33-6,7.33,2.67,8,5.34-1.33,5.33-8,5.33-10,3.33-10,8,10,4,10,4,8-.67,8.67,2,6,6.67,8.66,7.33S938,368.54,938,368.54s.67,66.66,0,76,2.67,14.66,3.33,20.66,0,6-4,5.13-8,6.21-10.66,8.87-8,12.67-18,29.34-11.34,53.33-11.34,60,4,9.33,7.34,9.33,4,6.67,4,14.67,3.33,12,5.33,16,2,10,2,12.66v24c0,2,.67,16.67,1.33,20S922,675.87,922,675.87l6.67,6.67s4.66,2.66,6.66,2,.67-5.34.67-9.34-2.67-7.33-3.33-10-1.34-8.66-2.67-15.33-2-11.33-1.33-22.67,8.66,2,8.66,4v10c0,3.34,2.67,17.34,2.67,17.34s4.67,14,7.33,22,5.34,10.66,8.67,17.33-1.33,19.33-1.33,28,6.66,8.67,13.33,9.33,20,11.34,29.33,20,15.34,15.34,31.34,18,22.66,22,26,28,13.33,8,19.33,8.67,11.33,6,13.33,10,11.34,4,13.34,6,4,17.33,4,17.33-.67,15.34-.67,25.34,8,20,16,20.66,12.67,3.34,14,7.34,4.67,6.66,11.33,7.33,2.67,4.67-1.33,7.33-4,11.34-4,14.67-2.67,8.67-2.85,12.67-11.15,8-19.82,14-8,9.33-16,19.33-5.33,40-6.66,52,8.66,31.33,9.33,41.46a110,110,0,0,0,6,27.21c2,5.33,3.33,17.33,3.33,24s-2,10-4.66,12.66-2,15.34-1.34,21.34S1100,1163.2,1096,1167.2s-4,16-2.67,23.34-6,21.33-7.33,33.33,4,12.67,12.67,14,0,11.33,0,11.33a225.34,225.34,0,0,0-10.67,20c-5.33,11.34-6,18-8,30s-2.67,25.34-3.33,34.67-7.34,7.33-14,10-4.67,14-.67,19.33,4.67,20.67,4,30,2,12.67,5.33,16.67,2,8.67,1.34,16,6.66,8,6.66,8l16-6c5.34-2,6.67-8.67,8-17.33s7.34-10.67,10-13.34,5.34-12,5.34-12,0-5.33.66-7.33.67-8,.67-8l6.67-4.67,5.33-6.66a18.72,18.72,0,0,1,5.15-7.34c3.82-3.33,4.18-12.66,4.18-12.66s4.67.66,6.67,0a59.88,59.88,0,0,0,6.67-3.34l-1.34-4s-3.33-2.66-2.66-6,4-7.33,6-9.33a88.09,88.09,0,0,1,10.66-8c4-2.67,14,0,16.67,0s8-6,10.67-8,4-3.33,6.66-4.67,6.67,1.34,20-10,37.34-41.33,40.67-45.33,7.33-4.67,11.33-4,30,4,39.34,4,12.66-5.33,12.66-5.33,2-4.67,18-42.67,45.34-39.33,52-40,4-14.67,4-14.67S1400.63,1124.54,1399.29,1116.54ZM1143,385.54c2.33,1.66-.85,8-2.92,6.33s-.78-6.33-2.93-8.33A13.9,13.9,0,0,1,1143,385.54Zm33,207a32.15,32.15,0,0,0,7-2.08c2-.92,2.67-1.26,4.33-1.92a23.92,23.92,0,0,1,4.67-1.67,7.53,7.53,0,0,1,4.33,0v5.67l-4.33,3-5.83,2.66s-3.5,2.34-4.84,3a4.14,4.14,0,0,1-3,0,15.74,15.74,0,0,1-4.33,1.67,16.74,16.74,0,0,1-4.33,0l-4.34.15a31.1,31.1,0,0,0-4.33-3.48c-1.33-.67-3-4.49-3-4.75a18.18,18.18,0,0,1,2-2.25,4.59,4.59,0,0,1,2.33-.67c1.34,0,4-.33,5,0S1172.85,593.16,1176,592.54Zm-69.33-46.67h7c4,0,2,.33,6.66,0a88.7,88.7,0,0,1,10,0l2.67,1.67,4.15,4s.52,3.33,1.52,4.33,3,2.67,4,3.67.66,2,2.66,2.33,1-.33,3.34,0,.66-.48,4,.09,4.33-1.23,6.66,0a17.48,17.48,0,0,0,5.34,1.58,7.07,7.07,0,0,1,2.66,1.66v8s-2.33,2.67-3.33,4-1.33,2.67-2.33,3.67-2,1.33-4,1.67-4,.66-5.34,0-3-3.34-3.66-4.34-3-3.33-4.34-3-4,2.67-4,2.67,0,.33-1.33,2.33a17.77,17.77,0,0,0-2,4.34l-3.67,2.33a15.21,15.21,0,0,0-1.66,2c-.67,1-.67-1.33-2,0s.66,2-1.34,1.33-3-.33-3.33-2.66a10.59,10.59,0,0,1,.33-5.67c.67-1.67,3-3,5-4.33a30.1,30.1,0,0,1,3.67-2.34c1.33-.66,2.3-2.66,3.15-4.66s-3.15-5.34-3.15-5.34-4.67-3.33-6.67-4.66-4.66-3.67-6.66-4.67-3-2.67-6.34-2.33-6,.66-7.66.33a28,28,0,0,1-6.34-2c-1-.67-1.66-3-1.66-3S1099.63,545.87,1106.63,545.87Z"/><path class="cls-7" d="M1041.41,360.46Z"/><polygon class="cls-7" points="1041.41 360.46 1041.4 360.45 1041.41 360.46 1041.41 360.46"/><path class="cls-7" d="M1040.91,360.08l.06.05,0,0Z"/><path class="cls-7" d="M1040.91,360.08l-.07-.05Z"/><path class="cls-7" d="M1040.84,360Z"/><path class="cls-7" d="M1352.63,497.87c2.66,6.67-4.67,7.33-4.67,7.33s-12-4.66-12,11.34,10.67,20,18,23.33,8.67,10.67,10,18,10.67,7.33,10.67,7.33h18c5.38,0,0-7.33,0-7.33s-.71-54.67,0-62S1386,481.2,1386,481.2s-18.67-20.66-28.67-31.33-29.33-20-40.66-8.67,2.66,26,5.33,29.13S1350,491.2,1352.63,497.87Z"/><path class="cls-7" d="M1230.29,781.54c1.34-.67,4-3.34,3-4.34s.67-4,0-5-4.33-2.33-7.33-3.66-3-2.34-5.33-4.34-4.67-2.33-7.34-4.33a67.27,67.27,0,0,0-7-4.32,24,24,0,0,0-6-2.35,67.51,67.51,0,0,0-8.33-.33c-2.67,0-5.67.67-8.33.67s-5,0-7.34-1,0-5.34,0-5.34-1.33-.66-5,0,0,0-4,3.52-2,.15-5.66.15-4.67-.33-8.23,0-3.77,3.33-4.44,5.33,1.67,3,4.33,4.67,3.32.8,4.67,3.33c2.67,5,7,5,9,5.34s6.33-.34,10,0a42.48,42.48,0,0,1,7.67,1c2.66.66,3.66,3.66,6.55,5s1.11,4.33,2.11,5.33,5.67,3,8.34,2,7.33.67,10.33,0,8,0,9.67,0S1229,782.2,1230.29,781.54Z"/><path class="cls-7" d="M1217.29,791.55c-2.33-2-2.66-1.35-3.66-2s-2-1-5,0-3.9,2.74-4,4.66c-.29,8,4.63,8,5.63,7.82a15.49,15.49,0,0,1,2.58-.15,28.18,28.18,0,0,0,5.42,0c1.67-.33,1.34-1,2.34-2.33s0-2.67,0-5.34S1219.63,793.54,1217.29,791.55Z"/><path class="cls-7" d="M1280.29,788.91a9.25,9.25,0,0,1-3,0c-1.33-.3-2,0-4.33,0s-2-.7-4-2.7-2.33-1.66-3.67-3.06-3.66-.6-5-1.94-3-3.33-4.66-4.33a13.82,13.82,0,0,0-5.34-2c-3-.67-5-.17-7.33,0-3.69.27-3,16-2.67,17.33s2,3,2,4.67,1.72,2,2.72,3.67a5.14,5.14,0,0,1,1,3.66c0,1.67-1.33,2.67-3,4s0,4.34.67,5.67,0,0,3.66-.67,0,0,1-1,3-3.33,3-3.33a35.48,35.48,0,0,1,3.67-2.67,45.35,45.35,0,0,0,5-4.14,58.86,58.86,0,0,0,5.33-2.77c2-1.24,4,.58,5.67-.42s3.67,1.33,6.67,0c2.2-1,2.6-.52,2.66-.21v-9.75Z"/><path class="cls-7" d="M1280.29,798.66v.21A.42.42,0,0,0,1280.29,798.66Z"/><path class="cls-2" d="M265.35,1375.57l9.27,8.2a27.27,27.27,0,0,0-6,11.33,22.3,22.3,0,0,0,1.28,12.5,37.67,37.67,0,0,0,8.32,13,36.16,36.16,0,0,0,10.71,8,18.26,18.26,0,0,0,10.29,2,14.1,14.1,0,0,0,8.05-3.79,12.92,12.92,0,0,0,4-7.55q.65-4.35-1.91-10.46-1.61-4-8.61-16.07t-8.67-18.07a26.72,26.72,0,0,1-.59-14,22.55,22.55,0,0,1,6.52-11,25.13,25.13,0,0,1,13.06-6.55,26.19,26.19,0,0,1,15.7,2.19,47,47,0,0,1,14.93,10.82,49.5,49.5,0,0,1,10.77,16.48,27.88,27.88,0,0,1,1.34,16.53,29.87,29.87,0,0,1-7.94,14.23l-9.32-8.43q6.1-7.18,5.55-14.71t-8.39-15.77q-8.16-8.61-15.05-9.54t-11.33,3.28a11.24,11.24,0,0,0-3.71,8.82q.11,5.1,8.47,19.14t10.49,20.19q3.06,9,1.47,16.17a24.5,24.5,0,0,1-7.36,12.66,26.84,26.84,0,0,1-13.88,7,29.72,29.72,0,0,1-16.8-1.93,45.22,45.22,0,0,1-15.92-11.14q-9.22-9.72-12.64-19a31.56,31.56,0,0,1-1.27-18.41A33.43,33.43,0,0,1,265.35,1375.57Z"/><path class="cls-2" d="M315.21,1471.6l62.92-76.16,55.07,45.5-7.43,9-45-37.16-19.27,23.32,42.13,34.81-7.38,8.93L354.13,1445l-21.41,25.92,46.75,38.62-7.42,9Z"/><path class="cls-2" d="M392.8,1533.66l52.85-83.46,28.75,18.2q9.74,6.16,14.1,10.61a33.52,33.52,0,0,1,8.46,13.72,40.32,40.32,0,0,1,.84,20.52,66.12,66.12,0,0,1-9.29,21.91,68.94,68.94,0,0,1-12.89,15.45,48.27,48.27,0,0,1-13.39,8.55,35.84,35.84,0,0,1-12.39,2.76,36.48,36.48,0,0,1-12.61-2.13,67.2,67.2,0,0,1-14.31-7.06Zm17.28-2.86,17.82,11.28q8.25,5.24,13.93,6.67a21.9,21.9,0,0,0,10.22.41,31.2,31.2,0,0,0,12.81-6.68,61.27,61.27,0,0,0,12.38-14.7q8.28-13.1,8.44-22.84t-4.48-16q-3.36-4.51-13.21-10.76L450.46,1467Z"/><path class="cls-2" d="M484.78,1589.41l41.88-89.47,64.68,30.28-4.94,10.56L533.55,1516l-12.82,27.4,49.49,23.17-4.91,10.5-49.5-23.17-14.25,30.45,54.92,25.71-4.94,10.56Z"/><path class="cls-2" d="M614.65,1643.66,640,1548.18l32.89,8.73q11.14,3,16.64,5.88a33.41,33.41,0,0,1,12.19,10.56,40.27,40.27,0,0,1,7,19.31,66.46,66.46,0,0,1-2.29,23.69,68.81,68.81,0,0,1-7.65,18.6,48,48,0,0,1-10.21,12.18,35.41,35.41,0,0,1-11,6.35,36.58,36.58,0,0,1-12.67,1.77,67.21,67.21,0,0,1-15.77-2.45Zm15.63-7.92,20.38,5.42q9.45,2.5,15.28,2.17a21.8,21.8,0,0,0,9.88-2.68A31.07,31.07,0,0,0,686,1630.43a61,61,0,0,0,7.39-17.73q4-15,1.2-24.33t-9.09-13.95q-4.56-3.3-15.83-6.29l-20.06-5.33Z"/><path class="cls-2" d="M719.13,1669.19l13-97.91,70.8,9.43-1.54,11.55-57.84-7.7-4,30,54.17,7.21-1.53,11.49L738.06,1626l-4.44,33.33,60.12,8-1.54,11.56Z"/><path class="cls-2" d="M839.61,1682l35.21-99.79,14.08-.38L932,1679.46l-14.89.4-12.33-29.59-41.29,1.13-10,30.21ZM867,1640.66l33.47-.92-11.05-27.06q-5.05-12.33-7.57-20.29a125.44,125.44,0,0,1-4.8,19Z"/><path class="cls-2" d="M948.47,1677.11l-13.58-97.84,12.94-1.8,12,86.3,48.19-6.69,1.6,11.55Z"/><path class="cls-2" d="M1021,1667.12l12.34-105.1,13.65-3.48,63.59,85.73-14.43,3.68-18.56-26.14-40,10.21-3.12,31.67Zm17.59-46.35,32.45-8.28-16.75-24q-7.65-10.92-11.85-18.12a126.38,126.38,0,0,1-.5,19.6Z"/><path class="cls-2" d="M1110.33,1614.14l10.48-5.64q4.39,10.45,9.4,13t11.24.27a15.65,15.65,0,0,0,7.17-5.08,11.62,11.62,0,0,0,2.46-7.47q-.09-4.1-3-12l-23.78-63.77,12.25-4.57L1160,1592q4.34,11.61,3.9,19a21.35,21.35,0,0,1-5.28,13,31.17,31.17,0,0,1-13.05,8.68q-12.19,4.55-21.27,0T1110.33,1614.14Z"/><path class="cls-2" d="M1210.3,1493.53l11.66-5.9,25.78,50.91q6.73,13.29,7.68,22.63a28.77,28.77,0,0,1-4.41,18.2q-5.35,8.88-18.11,15.33-12.37,6.27-22.42,6A27.32,27.32,0,0,1,1193,1594q-7.47-6.37-14.56-20.39l-25.78-50.91,11.66-5.91,25.75,50.86q5.82,11.47,10.71,15.84a18.15,18.15,0,0,0,11.58,4.67,28.55,28.55,0,0,0,14.2-3.49q12.87-6.51,15.39-15.12t-5.89-25.19Z"/><path class="cls-2" d="M1292,1560.5l-55.39-81.79,59.14-40,6.54,9.65L1254,1481l17,25,45.25-30.64,6.49,9.6-45.24,30.64,18.85,27.84,50.21-34,6.54,9.66Z"/><path class="cls-2" d="M1372,1504l-64.1-75.16,9.95-8.49,56.53,66.3,37-31.57L1419,1464Z"/><path class="cls-2" d="M1427.69,1456.65l-46-95.29,9.64-10.26,99.68,38.17-10.19,10.85-29.7-12.09-28.28,30.11,14.38,28.39Zm-10-48.55,22.93-24.41-27-11.21q-12.32-5.1-19.73-8.92a126.8,126.8,0,0,1,10.11,16.8Z"/></g></g></svg>